<?xml version="1.0" encoding="UTF-8" standalone="no"?>
<!-- Generator: Adobe Illustrator 16.0.0, SVG Export Plug-In . SVG Version: 6.00 Build 0)  -->

<svg
   xmlns:dc="http://purl.org/dc/elements/1.1/"
   xmlns:cc="http://creativecommons.org/ns#"
   xmlns:rdf="http://www.w3.org/1999/02/22-rdf-syntax-ns#"
   xmlns:svg="http://www.w3.org/2000/svg"
   xmlns="http://www.w3.org/2000/svg"
   xmlns:sodipodi="http://sodipodi.sourceforge.net/DTD/sodipodi-0.dtd"
   xmlns:inkscape="http://www.inkscape.org/namespaces/inkscape"
   version="1.1"
   id="Layer_1"
   x="0px"
   y="0px"
   width="50px"
   height="50px"
   viewBox="0 0 50 50"
   enable-background="new 0 0 50 50"
   xml:space="preserve"
   inkscape:version="0.48.4 r9939"
   sodipodi:docname="icon.svg"><metadata
     id="metadata3112"><rdf:RDF><cc:Work
         rdf:about=""><dc:format>image/svg+xml</dc:format><dc:type
           rdf:resource="http://purl.org/dc/dcmitype/StillImage" /></cc:Work></rdf:RDF></metadata><defs
     id="defs3110" /><sodipodi:namedview
     pagecolor="#ffffff"
     bordercolor="#666666"
     borderopacity="1"
     objecttolerance="10"
     gridtolerance="10"
     guidetolerance="10"
     inkscape:pageopacity="0"
     inkscape:pageshadow="2"
     inkscape:window-width="943"
     inkscape:window-height="736"
     id="namedview3108"
     showgrid="false"
     inkscape:zoom="4.72"
     inkscape:cx="25"
     inkscape:cy="25"
     inkscape:window-x="1484"
     inkscape:window-y="48"
     inkscape:window-maximized="0"
     inkscape:current-layer="Layer_1" /><g
     id="g3088"><path
       d="M19.867,18.561v-3.318c0-0.717-0.585-1.305-1.303-1.305h-3.318c-0.716,0-1.304,0.588-1.304,1.305v3.318   c0,0.716,0.588,1.305,1.304,1.305h3.318C19.282,19.866,19.867,19.277,19.867,18.561z"
       id="path3090" /><path
       d="M27.238,18.561v-3.318c0-0.717-0.585-1.305-1.303-1.305h-3.317c-0.717,0-1.305,0.588-1.305,1.305v3.318   c0,0.716,0.588,1.305,1.305,1.305h3.317C26.653,19.866,27.238,19.277,27.238,18.561z"
       id="path3092" /><path
       d="M34.609,18.561v-3.318c0-0.717-0.584-1.305-1.303-1.305h-3.317c-0.716,0-1.304,0.588-1.304,1.305v3.318   c0,0.716,0.588,1.305,1.304,1.305h3.317C34.025,19.866,34.609,19.277,34.609,18.561z"
       id="path3094" /><path
       d="M19.867,25.936v-3.318c0-0.717-0.585-1.305-1.303-1.305h-3.318c-0.716,0-1.304,0.587-1.304,1.305v3.318   c0,0.715,0.588,1.305,1.304,1.305h3.318C19.282,27.24,19.867,26.651,19.867,25.936z"
       id="path3096" /><path
       d="M27.238,25.936v-3.318c0-0.717-0.585-1.305-1.303-1.305h-3.317c-0.717,0-1.305,0.587-1.305,1.305v3.318   c0,0.715,0.588,1.305,1.305,1.305h3.317C26.653,27.24,27.238,26.651,27.238,25.936z"
       id="path3098" /><path
       d="M34.609,25.936v-3.318c0-0.717-0.584-1.305-1.303-1.305h-3.317c-0.716,0-1.304,0.587-1.304,1.305v3.318   c0,0.715,0.588,1.305,1.304,1.305h3.317C34.025,27.24,34.609,26.651,34.609,25.936z"
       id="path3100" /><path
       d="M19.867,33.31v-3.317c0-0.717-0.585-1.305-1.303-1.305h-3.318c-0.716,0-1.304,0.588-1.304,1.305v3.317   c0,0.716,0.588,1.305,1.304,1.305h3.318C19.282,34.615,19.867,34.025,19.867,33.31z"
       id="path3102" /><path
       d="M27.238,33.31v-3.317c0-0.717-0.585-1.305-1.303-1.305h-3.317c-0.717,0-1.305,0.588-1.305,1.305v3.317   c0,0.716,0.588,1.305,1.305,1.305h3.317C26.653,34.615,27.238,34.025,27.238,33.31z"
       id="path3104" /></g><path
     inkscape:connector-curvature="0"
     d="m 34.623017,33.294595 v -3.318 c 0,-0.717 -0.584,-1.305 -1.303,-1.305 h -3.317 c -0.716,0 -1.304,0.587 -1.304,1.305 v 3.318 c 0,0.715 0.588,1.305 1.304,1.305 h 3.317 c 0.719,-10e-4 1.303,-0.59 1.303,-1.305 z"
     id="path3100-6" /></svg>